<?xml version="1.0" encoding="UTF-8"?>
<!DOCTYPE svg PUBLIC "-//W3C//DTD SVG 1.1//EN" "http://www.w3.org/Graphics/SVG/1.1/DTD/svg11.dtd">
<svg xmlns="http://www.w3.org/2000/svg" version="1.1" width="142px" height="142px" style="shape-rendering:geometricPrecision; text-rendering:geometricPrecision; image-rendering:optimizeQuality; fill-rule:evenodd; clip-rule:evenodd" xmlns:xlink="http://www.w3.org/1999/xlink">
<g><path style="opacity:1" fill="#99c122" d="M 69.5,28.5 C 71.631,29.3138 73.9644,29.8138 76.5,30C 75.552,30.4828 74.552,30.6495 73.5,30.5C 73.719,31.675 73.3857,32.675 72.5,33.5C 66.683,35.5529 62.3496,39.2195 59.5,44.5C 59.5,44.8333 59.5,45.1667 59.5,45.5C 52.7032,52.455 45.3699,58.955 37.5,65C 35.8588,66.129 34.8588,67.629 34.5,69.5C 33.5,70.8333 32.5,72.1667 31.5,73.5C 29.7501,69.8171 29.0834,65.8171 29.5,61.5C 30.9238,59.4855 31.5905,57.1522 31.5,54.5C 38.9728,38.3775 51.6394,29.7108 69.5,28.5 Z"/></g>
<g><path style="opacity:1" fill="#33a64d" d="M 69.5,28.5 C 94.3653,29.3657 109.032,42.0324 113.5,66.5C 113.068,67.7095 112.401,68.7095 111.5,69.5C 107.14,48.021 94.1403,36.8543 72.5,36C 67.4878,37.8366 63.1545,40.6699 59.5,44.5C 62.3496,39.2195 66.683,35.5529 72.5,33.5C 73.3857,32.675 73.719,31.675 73.5,30.5C 74.552,30.6495 75.552,30.4828 76.5,30C 73.9644,29.8138 71.631,29.3138 69.5,28.5 Z"/></g>
<g><path style="opacity:0.251" fill="#198b42" d="M 59.5,45.5 C 52.4595,54.8744 44.1262,62.8744 34.5,69.5C 34.8588,67.629 35.8588,66.129 37.5,65C 45.3699,58.955 52.7032,52.455 59.5,45.5 Z"/></g>
<g><path style="opacity:0.788" fill="#4a8fad" d="M 31.5,54.5 C 31.5905,57.1522 30.9238,59.4855 29.5,61.5C 29.4095,58.8478 30.0762,56.5145 31.5,54.5 Z"/></g>
<g><path style="opacity:0.999" fill="#b4cc03" d="M 56.5,59.5 C 61.777,58.9312 66.777,59.7645 71.5,62C 78.0867,68.4282 85.0867,74.2615 92.5,79.5C 87.8629,82.2992 82.8629,83.1325 77.5,82C 70.03,78.4314 63.03,74.098 56.5,69C 54.6447,68.5779 52.8114,68.0779 51,67.5C 48.5631,68.6542 46.0631,69.1542 43.5,69C 47.5461,65.3231 51.8794,62.1564 56.5,59.5 Z"/></g>
<g><path style="opacity:0.552" fill="#008fd5" d="M 72.5,46.5 C 86.5027,47.7018 96.0027,54.7018 101,67.5C 98.0316,69.9908 94.8649,70.1574 91.5,68C 87.2002,64.7019 83.2002,61.0352 79.5,57C 73.3613,52.114 66.6946,51.2806 59.5,54.5C 59.1667,54.1667 58.8333,53.8333 58.5,53.5C 62.7272,50.053 67.3938,47.7196 72.5,46.5 Z"/></g>
<g><path style="opacity:1" fill="#008ed2" d="M 42.5,74.5 C 44.8568,74.3367 47.1902,74.5034 49.5,75C 54.5,78.6667 59.5,82.3333 64.5,86C 71.1276,90.7409 77.6276,90.5743 84,85.5C 84.1626,87.3867 83.3293,88.8867 81.5,90C 71.0347,97.1527 60.7014,96.8194 50.5,89C 46.6068,85.61 43.2735,81.7767 40.5,77.5C 41.1925,76.4822 41.8592,75.4822 42.5,74.5 Z"/></g>
<g><path style="opacity:1" fill="#0368b2" d="M 113.5,66.5 C 115.296,82.5895 109.63,95.5895 96.5,105.5C 96.83,98.8002 96.4967,92.1335 95.5,85.5C 88.4892,91.1806 81.8226,97.1806 75.5,103.5C 65.3655,109.288 55.6988,108.454 46.5,101C 42.8926,97.9023 39.8926,94.4023 37.5,90.5C 42.4914,96.322 48.4914,100.822 55.5,104C 64.2459,107.096 71.9126,105.43 78.5,99C 85.7201,90.1035 94.3867,83.1035 104.5,78C 107.423,75.5838 109.757,72.7504 111.5,69.5C 112.401,68.7095 113.068,67.7095 113.5,66.5 Z"/></g>
<g><path style="opacity:1" fill="#0075bc" d="M 96.5,105.5 C 91.4122,109.21 85.7455,111.543 79.5,112.5C 77.5648,111.85 75.5648,111.517 73.5,111.5C 73.0471,108.348 74.0471,105.848 76.5,104C 76.2716,103.601 75.9382,103.435 75.5,103.5C 81.8226,97.1806 88.4892,91.1806 95.5,85.5C 96.4967,92.1335 96.83,98.8002 96.5,105.5 Z"/></g>
<g><path style="opacity:1" fill="#0484ca" d="M 29.5,61.5 C 29.0834,65.8171 29.7501,69.8171 31.5,73.5C 32.3186,79.6246 34.3186,85.2913 37.5,90.5C 39.8926,94.4023 42.8926,97.9023 46.5,101C 55.6988,108.454 65.3655,109.288 75.5,103.5C 75.9382,103.435 76.2716,103.601 76.5,104C 74.0471,105.848 73.0471,108.348 73.5,111.5C 75.5648,111.517 77.5648,111.85 79.5,112.5C 49.156,115.349 31.8227,101.515 27.5,71C 27.807,67.6235 28.4737,64.4569 29.5,61.5 Z"/></g>
</svg>
