<?xml version="1.0" encoding="UTF-8"?>
<!DOCTYPE svg  PUBLIC '-//W3C//DTD SVG 1.1//EN'  'http://www.w3.org/Graphics/SVG/1.1/DTD/svg11.dtd'>
<svg clip-rule="evenodd" fill-rule="evenodd" image-rendering="optimizeQuality" shape-rendering="geometricPrecision" text-rendering="geometricPrecision" version="1.1" viewBox="0 0 142 142" xmlns="http://www.w3.org/2000/svg">
<path d="m69.5 28.5c2.131 0.8138 4.4644 1.3138 7 1.5-0.948 0.4828-1.948 0.6495-3 0.5 0.219 1.175-0.1143 2.175-1 3-5.817 2.0529-10.15 5.7195-13 11v1c-6.7968 6.955-14.13 13.455-22 19.5-1.6412 1.129-2.6412 2.629-3 4.5-1 1.3333-2 2.6667-3 4-1.7499-3.6829-2.4166-7.6829-2-12 1.4238-2.0145 2.0905-4.3478 2-7 7.4728-16.122 20.139-24.789 38-26z" fill="#99c122"/>
<path d="m69.5 28.5c24.865 0.8657 39.532 13.532 44 38-0.432 1.2095-1.099 2.2095-2 3-4.36-21.479-17.36-32.646-39-33.5-5.0122 1.8366-9.3455 4.6699-13 8.5 2.8496-5.2805 7.183-8.9471 13-11 0.8857-0.825 1.219-1.825 1-3 1.052 0.1495 2.052-0.0172 3-0.5-2.5356-0.1862-4.869-0.6862-7-1.5z" fill="#33a64d"/>
<path d="m59.5 45.5c-7.0405 9.3744-15.374 17.374-25 24 0.3588-1.871 1.3588-3.371 3-4.5 7.8699-6.045 15.203-12.545 22-19.5z" fill="#198b42" opacity=".251"/>
<path d="m31.5 54.5c0.0905 2.6522-0.5762 4.9855-2 7-0.0905-2.6522 0.5762-4.9855 2-7z" fill="#4a8fad" opacity=".788"/>
<path d="m56.5 59.5c5.277-0.5688 10.277 0.2645 15 2.5 6.5867 6.4282 13.587 12.262 21 17.5-4.6371 2.7992-9.6371 3.6325-15 2.5-7.47-3.5686-14.47-7.902-21-13-1.8553-0.4221-3.6886-0.9221-5.5-1.5-2.4369 1.1542-4.9369 1.6542-7.5 1.5 4.0461-3.6769 8.3794-6.8436 13-9.5z" fill="#b4cc03" opacity=".999"/>
<path d="m72.5 46.5c14.003 1.2018 23.503 8.2018 28.5 21-2.9684 2.4908-6.1351 2.6574-9.5 0.5-4.2998-3.2981-8.2998-6.9648-12-11-6.1387-4.886-12.805-5.7194-20-2.5l-1-1c4.2272-3.447 8.8938-5.7804 14-7z" fill="#008fd5" opacity=".552"/>
<path d="m42.5 74.5c2.3568-0.1633 4.6902 0.0034 7 0.5 5 3.6667 10 7.3333 15 11 6.6276 4.7409 13.128 4.5743 19.5-0.5 0.1626 1.8867-0.6707 3.3867-2.5 4.5-10.465 7.1527-20.799 6.8194-31-1-3.8932-3.39-7.2265-7.2233-10-11.5 0.6925-1.0178 1.3592-2.0178 2-3z" fill="#008ed2"/>
<path d="m113.5 66.5c1.796 16.09-3.87 29.09-17 39 0.33-6.6998-0.0033-13.366-1-20-7.0108 5.6806-13.677 11.681-20 18-10.134 5.788-19.801 4.954-29-2.5-3.6074-3.0977-6.6074-6.5977-9-10.5 4.9914 5.822 10.991 10.322 18 13.5 8.7459 3.096 16.413 1.43 23-5 7.2201-8.8965 15.887-15.896 26-21 2.923-2.4162 5.257-5.2496 7-8.5 0.901-0.7905 1.568-1.7905 2-3z" fill="#0368b2"/>
<path d="m96.5 105.5c-5.0878 3.71-10.754 6.043-17 7-1.9352-0.65-3.9352-0.983-6-1-0.4529-3.152 0.5471-5.652 3-7.5-0.2284-0.399-0.5618-0.565-1-0.5 6.3226-6.3194 12.989-12.319 20-18 0.9967 6.6335 1.33 13.3 1 20z" fill="#0075bc"/>
<path d="m29.5 61.5c-0.4166 4.3171 0.2501 8.3171 2 12 0.8186 6.1246 2.8186 11.791 6 17 2.3926 3.9023 5.3926 7.4023 9 10.5 9.1988 7.454 18.866 8.288 29 2.5 0.4382-0.065 0.7716 0.101 1 0.5-2.4529 1.848-3.4529 4.348-3 7.5 2.0648 0.017 4.0648 0.35 6 1-30.344 2.849-47.677-10.985-52-41.5 0.307-3.3765 0.9737-6.5431 2-9.5z" fill="#0484ca"/>
</svg>
