<?xml version="1.0" encoding="UTF-8"?>
<svg xmlns="http://www.w3.org/2000/svg" xmlns:xlink="http://www.w3.org/1999/xlink" width="50px" height="50px" viewBox="0 0 50 50" version="1.1">
<defs>
<filter id="alpha" filterUnits="objectBoundingBox" x="0%" y="0%" width="100%" height="100%">
  <feColorMatrix type="matrix" in="SourceGraphic" values="0 0 0 0 1 0 0 0 0 1 0 0 0 0 1 0 0 0 1 0"/>
</filter>
<mask id="mask0">
  <g filter="url(#alpha)">
<rect x="0" y="0" width="50" height="50" style="fill:rgb(0%,0%,0%);fill-opacity:0.25098;stroke:none;"/>
  </g>
</mask>
<clipPath id="clip1">
  <rect x="0" y="0" width="50" height="50"/>
</clipPath>
<g id="surface5" clip-path="url(#clip1)">
<path style=" stroke:none;fill-rule:evenodd;fill:rgb(9.803922%,54.509807%,25.882354%);fill-opacity:1;" d="M 20.949219 16.019531 C 18.472656 19.320312 15.539062 22.140625 12.148438 24.472656 C 12.273438 23.8125 12.625 23.285156 13.203125 22.886719 C 15.976562 20.757812 18.558594 18.46875 20.949219 16.019531 Z M 20.949219 16.019531 "/>
</g>
<mask id="mask1">
  <g filter="url(#alpha)">
<rect x="0" y="0" width="50" height="50" style="fill:rgb(0%,0%,0%);fill-opacity:0.788235;stroke:none;"/>
  </g>
</mask>
<clipPath id="clip2">
  <rect x="0" y="0" width="50" height="50"/>
</clipPath>
<g id="surface8" clip-path="url(#clip2)">
<path style=" stroke:none;fill-rule:evenodd;fill:rgb(29.019609%,56.078434%,67.843139%);fill-opacity:1;" d="M 11.089844 19.191406 C 11.125 20.125 10.886719 20.945312 10.386719 21.65625 C 10.355469 20.722656 10.589844 19.898438 11.089844 19.191406 Z M 11.089844 19.191406 "/>
</g>
<mask id="mask2">
  <g filter="url(#alpha)">
<rect x="0" y="0" width="50" height="50" style="fill:rgb(0%,0%,0%);fill-opacity:0.552941;stroke:none;"/>
  </g>
</mask>
<clipPath id="clip3">
  <rect x="0" y="0" width="50" height="50"/>
</clipPath>
<g id="surface11" clip-path="url(#clip3)">
<path style=" stroke:none;fill-rule:evenodd;fill:rgb(0%,56.078434%,83.529413%);fill-opacity:1;" d="M 25.527344 16.375 C 30.457031 16.796875 33.804688 19.261719 35.5625 23.769531 C 34.519531 24.644531 33.402344 24.703125 32.21875 23.945312 C 30.703125 22.78125 29.296875 21.492188 27.992188 20.070312 C 25.832031 18.351562 23.484375 18.054688 20.949219 19.191406 L 20.597656 18.839844 C 22.085938 17.625 23.730469 16.800781 25.527344 16.375 Z M 25.527344 16.375 "/>
</g>
</defs>
<g id="surface1">
<path style=" stroke:none;fill-rule:evenodd;fill:rgb(60.000002%,75.686276%,13.333334%);fill-opacity:1;" d="M 24.472656 10.035156 C 25.222656 10.320312 26.042969 10.496094 26.9375 10.5625 C 26.601562 10.734375 26.25 10.792969 25.878906 10.738281 C 25.957031 11.152344 25.839844 11.503906 25.527344 11.796875 C 23.480469 12.519531 21.953125 13.808594 20.949219 15.667969 L 20.949219 16.019531 C 18.558594 18.46875 15.976562 20.757812 13.203125 22.886719 C 12.625 23.285156 12.273438 23.8125 12.148438 24.472656 C 11.796875 24.941406 11.445312 25.410156 11.089844 25.878906 C 10.476562 24.582031 10.242188 23.175781 10.386719 21.65625 C 10.886719 20.945312 11.125 20.125 11.089844 19.191406 C 13.722656 13.511719 18.183594 10.460938 24.472656 10.035156 Z M 24.472656 10.035156 "/>
<path style=" stroke:none;fill-rule:evenodd;fill:rgb(20%,65.098041%,30.19608%);fill-opacity:1;" d="M 24.472656 10.035156 C 33.226562 10.339844 38.390625 14.800781 39.964844 23.414062 C 39.8125 23.839844 39.578125 24.195312 39.261719 24.472656 C 37.726562 16.910156 33.148438 12.976562 25.527344 12.675781 C 23.761719 13.324219 22.238281 14.320312 20.949219 15.667969 C 21.953125 13.808594 23.480469 12.519531 25.527344 11.796875 C 25.839844 11.503906 25.957031 11.152344 25.878906 10.738281 C 26.25 10.792969 26.601562 10.734375 26.9375 10.5625 C 26.042969 10.496094 25.222656 10.320312 24.472656 10.035156 Z M 24.472656 10.035156 "/>
<use xlink:href="#surface5" mask="url(#mask0)"/>
<use xlink:href="#surface8" mask="url(#mask1)"/>
<path style=" stroke:none;fill-rule:evenodd;fill:rgb(70.588237%,80.000001%,1.176471%);fill-opacity:1;" d="M 19.894531 20.949219 C 21.753906 20.75 23.511719 21.042969 25.175781 21.832031 C 27.496094 24.09375 29.960938 26.148438 32.570312 27.992188 C 30.9375 28.980469 29.175781 29.273438 27.289062 28.875 C 24.660156 27.617188 22.195312 26.089844 19.894531 24.296875 C 19.242188 24.148438 18.59375 23.972656 17.957031 23.769531 C 17.101562 24.175781 16.21875 24.351562 15.316406 24.296875 C 16.742188 23 18.265625 21.886719 19.894531 20.949219 Z M 19.894531 20.949219 "/>
<use xlink:href="#surface11" mask="url(#mask2)"/>
<path style=" stroke:none;fill-rule:evenodd;fill:rgb(0%,55.686277%,82.352942%);fill-opacity:1;" d="M 14.964844 26.230469 C 15.792969 26.175781 16.617188 26.234375 17.429688 26.410156 C 19.191406 27.699219 20.949219 28.992188 22.710938 30.28125 C 25.046875 31.949219 27.332031 31.890625 29.578125 30.105469 C 29.632812 30.769531 29.339844 31.296875 28.695312 31.691406 C 25.011719 34.207031 21.375 34.089844 17.78125 31.339844 C 16.410156 30.144531 15.238281 28.792969 14.261719 27.289062 C 14.503906 26.929688 14.738281 26.578125 14.964844 26.230469 Z M 14.964844 26.230469 "/>
<path style=" stroke:none;fill-rule:evenodd;fill:rgb(1.176471%,40.784314%,69.803923%);fill-opacity:1;" d="M 39.964844 23.414062 C 40.597656 29.082031 38.601562 33.660156 33.980469 37.148438 C 34.09375 34.789062 33.976562 32.441406 33.625 30.105469 C 31.15625 32.105469 28.8125 34.21875 26.585938 36.445312 C 23.015625 38.480469 19.613281 38.1875 16.375 35.5625 C 15.101562 34.472656 14.046875 33.242188 13.203125 31.867188 C 14.960938 33.917969 17.074219 35.5 19.542969 36.621094 C 22.621094 37.710938 25.320312 37.125 27.640625 34.859375 C 30.183594 31.726562 33.234375 29.261719 36.796875 27.464844 C 37.824219 26.613281 38.648438 25.617188 39.261719 24.472656 C 39.578125 24.195312 39.8125 23.839844 39.964844 23.414062 Z M 39.964844 23.414062 "/>
<path style=" stroke:none;fill-rule:evenodd;fill:rgb(0%,45.882353%,73.725492%);fill-opacity:1;" d="M 33.980469 37.148438 C 32.1875 38.453125 30.191406 39.277344 27.992188 39.613281 C 27.3125 39.382812 26.605469 39.265625 25.878906 39.261719 C 25.722656 38.152344 26.074219 37.269531 26.9375 36.621094 C 26.855469 36.480469 26.738281 36.421875 26.585938 36.445312 C 28.8125 34.21875 31.15625 32.105469 33.625 30.105469 C 33.976562 32.441406 34.09375 34.789062 33.980469 37.148438 Z M 33.980469 37.148438 "/>
<path style=" stroke:none;fill-rule:evenodd;fill:rgb(1.568628%,51.764709%,79.215688%);fill-opacity:1;" d="M 10.386719 21.65625 C 10.242188 23.175781 10.476562 24.582031 11.089844 25.878906 C 11.378906 28.035156 12.085938 30.03125 13.203125 31.867188 C 14.046875 33.242188 15.101562 34.472656 16.375 35.5625 C 19.613281 38.1875 23.015625 38.480469 26.585938 36.445312 C 26.738281 36.421875 26.855469 36.480469 26.9375 36.621094 C 26.074219 37.269531 25.722656 38.152344 25.878906 39.261719 C 26.605469 39.265625 27.3125 39.382812 27.992188 39.613281 C 17.308594 40.617188 11.207031 35.746094 9.683594 25 C 9.792969 23.8125 10.027344 22.695312 10.386719 21.65625 Z M 10.386719 21.65625 "/>
</g>
</svg>
